<svg width="20" height="18" viewBox="0 0 20 18" fill="none" xmlns="http://www.w3.org/2000/svg">
<path opacity="0.5" d="M18.4537 9.27081C20.5154 7.14636 20.5154 3.69676 18.4537 1.59334C16.3919 -0.531113 13.0441 -0.531113 10.9824 1.59334L9.98214 2.64505L8.98188 1.61437C6.92013 -0.531113 3.57234 -0.531113 1.531 1.59334C0.530748 2.62401 0 3.99124 0 5.44259C0 6.89395 0.551161 8.26117 1.531 9.29185L9.98214 18L18.4537 9.27081ZM1.30646 5.44259C1.30646 4.34882 1.71472 3.33918 2.47002 2.58195C3.24573 1.78265 4.24598 1.383 5.24624 1.383C6.24649 1.383 7.24675 1.78265 8.02246 2.58195L9.98214 4.58019L11.9418 2.56091C13.4728 0.983348 15.9837 0.983348 17.4943 2.56091C18.2291 3.31814 18.6578 4.32778 18.6578 5.42156C18.6578 6.51534 18.2496 7.52498 17.4943 8.28221L9.98214 16.0438L2.47002 8.30324C1.73514 7.52498 1.30646 6.51534 1.30646 5.44259Z" fill="black"/>
</svg>
